<svg width="172" height="116" viewBox="0 0 172 116" fill="none" xmlns="http://www.w3.org/2000/svg">
<g clip-path="url(#clip0_74_586)">
<path d="M92.3177 17.1033C101.762 24.8653 109.53 34.7392 115.184 45.5708L115.966 46.0393L143.44 2.74503C145.188 1.28451 147.938 2.13934 149.938 2.16905C156.971 2.27419 164.037 2.10277 171.031 1.94277C171.306 1.93591 171.507 1.89249 171.692 2.15533C171.967 2.54161 169.436 10.0293 169.116 11.2521C161.595 40.1173 160.751 69.7138 167.288 98.8898C168.562 104.572 170.322 110.128 171.795 115.755C163.913 111.799 156.731 105.237 151.704 98.0007C140.69 82.1408 138.791 61.9701 145.712 43.9891L114.948 90.625C110.198 83.1647 105.604 75.5902 100.827 68.1413C99.0078 65.3048 92.6152 56.832 92.0043 54.327C91.6977 53.0676 91.6839 51.4768 91.3819 50.1489C89.4211 41.5709 82.6236 32.1519 74.7598 28.1269C73.5677 27.5166 70.8565 26.7509 70.0534 26.0858C69.6736 25.7704 69.1451 24.7579 68.7287 24.3259C59.9039 15.1765 50.148 7.61341 38.6441 2.04334C38.6349 1.4765 46.7412 0.153128 47.6678 0.0914159C63.5052 -0.973685 80.3607 7.27513 92.32 17.1033H92.3177Z" fill="#02308E"/>
<path d="M40.3805 15.2748C42.927 17.0279 45.533 18.9273 48.0018 20.8015C49.3311 21.8117 50.6375 22.8928 51.9005 23.9876C51.9096 24.287 47.5968 25.1304 47.0477 25.3064C24.9138 32.3804 16.208 59.312 29.5241 78.3421C43.3366 98.083 73.5882 97.5139 86.6754 77.2335C87.4831 75.981 88.229 73.9834 89.0023 72.9297C89.1488 72.7309 89.2265 72.4817 89.5377 72.5549L103.121 93.4089C97.3214 101.146 89.4256 107.463 80.5048 111.294C49.9099 124.434 14.3273 108.999 3.29011 77.8049C-5.46141 53.0722 3.6905 25.2882 25.3851 10.747C26.0669 10.2899 28.4899 8.62824 29.0367 8.43396C29.4119 8.30139 31.3155 9.43735 31.8395 9.74134C34.6377 11.3664 37.7036 13.428 40.3782 15.2703L40.3805 15.2748Z" fill="#E12424"/>
<path d="M54.8291 42.6795C75.7687 40.1858 73.872 76.6027 54.3692 72.724C39.9161 69.8487 40.678 44.364 54.8291 42.6795Z" fill="#FCEF1E"/>
</g>
<defs>
<clipPath id="clip0_74_586">
<rect width="172" height="116" fill="white"/>
</clipPath>
</defs>
</svg>
